<svg id="bc4ccc1a-6088-4a0b-8e75-630a9ab24761" data-name="Layer 1" xmlns="http://www.w3.org/2000/svg" width="923.5" height="746.92278" viewBox="0 0 923.5 746.92278"><title>interior_design</title><rect y="717.46139" width="364" height="2" fill="#3f3d56"/><path d="M994.30354,459.37405l-1.26717-.475c-.27845-.10493-27.99251-10.72311-40.975-34.79938-12.983-24.07743-6.62585-53.06673-6.56013-53.35614l.29921-1.32021,1.2666.475c.27845.10493,27.99194,10.72312,40.975,34.79939,12.983,24.07742,6.62585,53.06672,6.56013,53.35613ZM954.1403,422.97889c10.9762,20.35662,32.87672,30.79147,38.42564,33.17362,1.055-5.94729,4.36361-29.997-6.60279-50.33406-10.96524-20.33471-32.87441-30.78571-38.42564-33.17362C946.48192,378.59558,943.17447,402.643,954.1403,422.97889Z" transform="translate(-138.25 -76.53861)" fill="#3f3d56"/><path d="M962.983,417.65405c23.33122,14.03683,32.3168,41.91784,32.3168,41.91784s-28.84178,5.12282-52.173-8.914S910.81,408.74,910.81,408.74,939.65179,403.61723,962.983,417.65405Z" transform="translate(-138.25 -76.53861)" fill="#d0cde1"/><path d="M990.75,537.53861a71.08056,71.08056,0,0,1-71-71v-1h142v1A71.08056,71.08056,0,0,1,990.75,537.53861Zm-68.99316-70a69.00041,69.00041,0,0,0,137.98632,0Z" transform="translate(-138.25 -76.53861)" fill="#3f3d56"/><path d="M990.75,525.03861a47,47,0,0,0,47-47h-94A47,47,0,0,0,990.75,525.03861Z" transform="translate(-138.25 -76.53861)" fill="#ffbe63"/><circle cx="225.5" cy="62" r="51" fill="#2f2e41"/><path d="M347.25,173.03861s7,47-6,58,21,57,21,57l46-74s-35-9-17-36Z" transform="translate(-138.25 -76.53861)" fill="#a0616a"/><path d="M330.25,311.03861l-6.99,27.44-7.01,27.56-24-2,11-46s-2-43-3-53a13.54364,13.54364,0,0,1,.40991-5.48,6.16992,6.16992,0,0,1,5.59009-4.52Z" transform="translate(-138.25 -76.53861)" fill="#575a89"/><path d="M357.25,694.03861l-30,6-2.91992-25.51-10.51-92.01-2.57007-22.48,35-10-.23,8-.77,27a111.97973,111.97973,0,0,1,3.35,16.08,172.24237,172.24237,0,0,1,1.65,30.92C349.25,660.03861,357.25,694.03861,357.25,694.03861Z" transform="translate(-138.25 -76.53861)" fill="#a0616a"/><path d="M325.25,698.03861l31-9,17,42,24,56s31,41-2,36-38-13-38-17v-7l-4,1-3-3-4-30s-9-8-5-19Z" transform="translate(-138.25 -76.53861)" fill="#2f2e41"/><path d="M348.6,601.11857l-.35.92s-5.21,48.6-22.11,69.3l-1.80993,3.19-10.51-92.01,6.59985-24.48H346.02l-.77,27A111.97973,111.97973,0,0,1,348.6,601.11857Z" transform="translate(-138.25 -76.53861)" opacity="0.2"/><path d="M362.25,558.03861l-17,44s-5.21027,48.60389-22.10514,69.30194L301.25,710.03861s-26-9-24-9,17-51,17-51l14-58,9.16929-34Z" transform="translate(-138.25 -76.53861)" fill="#a0616a"/><path d="M310.25,698.03861l-31-9-17,42-24,56s-31,41,2,36,38-13,38-17v-7l4,1,3-3,4-30s9-8,5-19Z" transform="translate(-138.25 -76.53861)" fill="#2f2e41"/><circle cx="233.5" cy="75" r="35" fill="#a0616a"/><path d="M330.25,311.03861l-6.99,27.44-6.01-.44a17.2737,17.2737,0,0,0-2-7c-2-4,0-1,4-5s1-2-2-7,2-16,2-16c-5.6-4-13-48-13-48Z" transform="translate(-138.25 -76.53861)" opacity="0.2"/><path d="M363.25,273.03861l-21-46-40,28s13,43,20,48c0,0-5,11-2,16s6,3,2,7-6,1-4,5a17.2737,17.2737,0,0,1,2,7l95,7,6-17s12-23,8-55l15-55-42-7Z" transform="translate(-138.25 -76.53861)" fill="#575a89"/><path d="M418.44259,339.24727S435.25,376.03861,418.25,436.03861s-32,123-32,123l-77,9-2-35-27-4s4-113,16-141,23.437-53.30267,23.437-53.30267Z" transform="translate(-138.25 -76.53861)" fill="#2f2e41"/><rect x="255.02059" y="470.03862" width="124.45883" height="1.99998" transform="translate(-334.87321 636.28351) rotate(-81.23682)" opacity="0.2"/><path d="M398.09259,123.66542A24.048,24.048,0,0,0,385.954,110.26917c-6.97607-3.32208-15.10766-3.05556-22.75464-1.94857-8.82114,1.27695-18.09216,3.94576-23.7876,10.80178-3.65354,4.398-5.40931,10.02389-7.08158,15.49149-1.93321,6.32081-3.88261,12.73712-4.05359,19.34475A73.262,73.262,0,0,0,329.63219,167.59a20.26339,20.26339,0,0,0,2.06918,7.0863c1.2505,2.13656,3.53473,3.853,6.0055,3.69832a26.32309,26.32309,0,0,1,1.6678-28.22947,51.41241,51.41241,0,0,1,4.66841-5.19124l12.712-12.90826c3.89958-3.95978,7.974-8.03554,13.18018-9.9804a19.49633,19.49633,0,0,1,18.08639,2.54639,19.07908,19.07908,0,0,1,5.24279,6.00113c.93129,1.65929,3.09291,7.00412,3.09291,7.00412S398.8614,125.79793,398.09259,123.66542Z" transform="translate(-138.25 -76.53861)" fill="#2f2e41"/><ellipse cx="199" cy="75" rx="3.5" ry="7" fill="#a0616a"/><circle cx="202.5" cy="16" r="16" fill="#2f2e41"/><path d="M378.8777,402.64932H319.3098a5.653,5.653,0,0,1-5.653-5.653l-2.625-77.94259a5.653,5.653,0,0,1,5.653-5.653h64.81782a5.653,5.653,0,0,1,5.653,5.653l-2.625,77.94259A5.653,5.653,0,0,1,378.8777,402.64932Z" transform="translate(-138.25 -76.53861)" fill="#3f3d56"/><circle cx="210.84375" cy="260.4868" r="5.24991" fill="#d0cde1"/><path d="M420.25,339.03861,386.57815,342.926S329.25,340.03861,343.25,357.03861s46,3,46,3l42-2Z" transform="translate(-138.25 -76.53861)" fill="#a0616a"/><path d="M298.14041,348.50984s-11.12063,4.93039-5.6753,13.98027,31.20363,18.20377,34.55072,4.74394-15.936-17.70533-20.72392-18.34625A42.78187,42.78187,0,0,0,298.14041,348.50984Z" transform="translate(-138.25 -76.53861)" fill="#a0616a"/><path d="M432.25,222.03861l12-4a27.14477,27.14477,0,0,1,8,14c2,9,34,111,18,119s-44,21-44,21l-13-34,21-11-8-44S418.25,222.03861,432.25,222.03861Z" transform="translate(-138.25 -76.53861)" fill="#575a89"/><path d="M845.25,537.03861h-256v-256h256Zm-254-2h252v-252h-252Z" transform="translate(-138.25 -76.53861)" fill="#3f3d56"/><rect x="482" y="235.5" width="194" height="194" fill="#ffbe63"/><path d="M692.59668,448.22562c-5.80469-18.0083-13.124-30.76757-23.03418-40.15332l-.63281-.59961.50781-.709c18.96387-26.47461,34.6123-52.375,46.51074-76.981l.88086-1.8208.91211,1.80518c15.19629,30.07617,30.66895,55.25342,47.30274,76.97119l.5166.6748-.582.61866c-12.04688,12.79638-19.8545,25.93212-23.86817,40.15869l-1.92578-.543c4.03906-14.313,11.81348-27.52539,23.75684-40.3667-16.18262-21.228-31.27051-45.72656-46.07422-74.81494-11.72852,23.94677-26.96,49.084-45.29981,74.75781,9.84473,9.56494,17.14453,22.42822,22.9336,40.38867Z" transform="translate(-138.25 -76.53861)" fill="#3f3d56"/><rect x="577.59863" y="253.67969" width="2" height="77.12793" fill="#3f3d56"/><circle cx="578.59829" cy="330.80769" r="5.62393" fill="#3f3d56"/><rect x="670.30195" y="469.89843" width="93.40754" height="2.00008" transform="matrix(0.83267, -0.55377, 0.55377, 0.83267, -279.04264, 399.31433)" fill="#cfcce0"/><path d="M673.37805,469.89834c-3.44654-2.349-4.42028-4.65183-4.51583-4.89659l1.86233-.728-.93117.364.92827-.37187c.05814.14185,6.37621,14.25461,47.05974,6.55085,42.60715-8.0691,47.57171,4.50959,47.762,5.04879l-1.88662.66652c-.038-.10034-5.00269-11.41991-45.50331-3.75044C691.59905,477.81071,679.09133,473.79226,673.37805,469.89834Z" transform="translate(-138.25 -76.53861)" fill="#3f3d56"/><rect x="665.37777" y="460.03596" width="10" height="10" transform="translate(-213.07153 56.31849) rotate(-10.72343)" fill="#3f3d56"/><rect x="758.43169" y="470.4026" width="10" height="10" transform="translate(-213.37542 73.81391) rotate(-10.72343)" fill="#3f3d56"/><circle cx="579.20259" cy="394.58976" r="5" fill="#cfcce0"/><circle cx="539.86652" cy="420.2232" r="5" fill="#cfcce0"/><circle cx="617.64438" cy="368.49695" r="5" fill="#cfcce0"/><rect x="578" y="332.46139" width="2" height="18" fill="#3f3d56"/><rect x="430" y="459.46139" width="484" height="2" fill="#3f3d56"/></svg>